<?xml version="1.0" standalone="no"?>
<!DOCTYPE svg PUBLIC "-//W3C//DTD SVG 20010904//EN"
 "http://www.w3.org/TR/2001/REC-SVG-20010904/DTD/svg10.dtd">
<svg version="1.0" xmlns="http://www.w3.org/2000/svg"
 width="128.000000pt" height="128.000000pt" viewBox="0 0 128.000000 128.000000"
 preserveAspectRatio="xMidYMid meet">
<metadata>
Created by potrace 1.14, written by Peter Selinger 2001-2017
</metadata>
<g transform="translate(0.000000,128.000000) scale(0.100000,-0.100000)"
fill="#000000" stroke="none">
<path d="M367 1230 c-8 -3 -13 -21 -12 -43 1 -21 -3 -41 -9 -45 -6 -3 -45 -7
-86 -8 -41 -1 -80 -2 -86 -3 -7 -1 -10 -34 -10 -97 1 -53 -3 -98 -8 -102 -5
-3 -31 -4 -57 -3 -38 1 -47 -2 -50 -16 -3 -14 -3 -843 0 -890 1 -18 147 -18
153 0 2 6 3 31 2 55 l-2 42 489 0 c428 0 489 2 489 15 0 8 5 15 10 15 6 0 10
-31 11 -72 1 -52 3 -66 9 -48 8 24 8 24 9 3 1 -19 7 -23 31 -23 l30 0 0 460 0
460 -48 0 -48 0 1 78 c2 131 5 127 -111 127 l-99 0 -2 44 c-2 24 -5 47 -8 49
-6 7 -582 8 -598 2z m850 -807 c-3 -10 -5 -4 -5 12 0 17 2 24 5 18 2 -7 2 -21
0 -30z m13 -27 c0 -3 -4 -8 -10 -11 -5 -3 -10 -1 -10 4 0 6 5 11 10 11 6 0 10
-2 10 -4z m36 -110 c0 -14 -5 -21 -9 -17 -4 4 -5 15 -1 24 9 24 12 21 10 -7z
m-44 -11 c3 -14 1 -25 -3 -25 -5 0 -9 11 -9 25 0 14 2 25 4 25 2 0 6 -11 8
-25z m45 -47 c-3 -8 -6 -5 -6 6 -1 11 2 17 5 13 3 -3 4 -12 1 -19z m-37 8 c0
-3 -4 -8 -10 -11 -5 -3 -10 -1 -10 4 0 6 5 11 10 11 6 0 10 -2 10 -4z m40 -36
c0 -5 -5 -10 -11 -10 -5 0 -7 5 -4 10 3 6 8 10 11 10 2 0 4 -4 4 -10z m-45
-30 c-2 -31 -15 -37 -15 -7 0 15 4 27 8 27 5 0 8 -9 7 -20z m42 -22 c-3 -7 -5
-2 -5 12 0 14 2 19 5 13 2 -7 2 -19 0 -25z m0 -54 c0 -20 -3 -31 -6 -25 -6 9
-7 43 -2 59 4 10 7 -4 8 -34z m-37 12 c0 -3 -4 -8 -10 -11 -5 -3 -10 -1 -10 4
0 6 5 11 10 11 6 0 10 -2 10 -4z m-5 -36 c3 -5 1 -10 -4 -10 -6 0 -11 5 -11
10 0 6 2 10 4 10 3 0 8 -4 11 -10z m45 -35 c0 -8 -4 -15 -10 -15 -5 0 -7 7 -4
15 4 8 8 15 10 15 2 0 4 -7 4 -15z"/>
</g>
</svg>
